<?xml version="1.0" encoding="utf-8"?>
<!-- Generator: Adobe Illustrator 24.0.1, SVG Export Plug-In . SVG Version: 6.00 Build 0)  -->
<svg version="1.1" xmlns="http://www.w3.org/2000/svg" xmlns:xlink="http://www.w3.org/1999/xlink" x="0px" y="0px"
	 viewBox="0 0 1000 1000" style="enable-background:new 0 0 1000 1000;" xml:space="preserve">
<style type="text/css">
	.st0{fill:#8CC63F;}
	.st1{fill:#FFFFFF;}
	.st2{fill:none;stroke:#000000;stroke-miterlimit:10;}
	.st3{font-family:'Arvo-Bold';}
	.st4{font-size:12px;}
	.st5{font-family:'Nunito-Bold';}
	.st6{font-size:36px;}
	.st7{font-size:33px;}
</style>
<g id="Capa_3">
	<rect x="0" class="st0" width="1000" height="1000"/>
</g>
<g id="Capa_1">
	<g>
		<path class="st1" d="M499.8,931.9c-59.3,0-116.9-11.6-171-34.4c-52.3-22-99.3-53.5-139.7-93.7c-40.4-40.1-72-86.9-94.2-139
			C72.1,611,60.5,553.7,60.5,494.7c0-59,11.6-116.3,34.5-170.2c22.1-52.1,53.8-98.8,94.2-139c40.4-40.1,87.3-71.7,139.7-93.7
			c54.2-22.8,111.7-34.4,171-34.4c59.3,0,116.9,11.6,171,34.4c52.3,22,99.3,53.5,139.7,93.7s72,86.9,94.2,139
			c22.9,53.9,34.5,111.1,34.5,170.2c0,59-11.6,116.3-34.5,170.2c-22.1,52.1-53.8,98.8-94.2,139s-87.3,71.7-139.7,93.7
			C616.7,920.3,559.2,931.9,499.8,931.9z"/>
		<path d="M499.8,58c59.2,0,116.7,11.5,170.8,34.3c52.3,22,99.2,53.5,139.5,93.6c40.3,40.1,71.9,86.8,94.1,138.8
			c22.9,53.8,34.5,111,34.5,170s-11.6,116.1-34.5,170c-22.1,52-53.7,98.7-94.1,138.8c-40.3,40.1-87.2,71.6-139.5,93.6
			c-54.1,22.8-111.6,34.3-170.8,34.3S383.1,919.8,329,897.1c-52.3-22-99.2-53.5-139.5-93.6c-40.3-40.1-71.9-86.8-94.1-138.8
			c-22.9-53.8-34.5-111-34.5-170s11.6-116.1,34.5-170c22.1-52,53.7-98.7,94.1-138.8c40.3-40.1,87.2-71.6,139.5-93.6
			C383.1,69.6,440.6,58,499.8,58 M499.8,57C256.9,57,60,253,60,494.7s196.9,437.7,439.9,437.7s439.9-196,439.9-437.7
			S742.8,57,499.8,57L499.8,57z"/>
	</g>
	<g>
		<line class="st2" x1="500.5" y1="71.5" x2="500.5" y2="908.5"/>
	</g>
	<line class="st2" x1="78.5" y1="496.5" x2="919.5" y2="496.5"/>
</g>
<g id="Capa_2">
	<path class="st2" d="M203.2,475.8c-0.2,10.2-0.2,20.5,0.1,30.7"/>
	<path class="st2" d="M299.7,475.8c0.3,10.2,0.3,20.5-0.2,30.7"/>
	<path class="st2" d="M449.7,475.8c0.3,10.2,0.3,20.5-0.2,30.7"/>
	<path class="st2" d="M349.7,475.8c0.3,10.2,0.3,20.5-0.2,30.7"/>
	<path class="st2" d="M250.7,475.8c0.3,10.2,0.3,20.5-0.2,30.7"/>
	<path class="st2" d="M157.7,475.8c0.3,10.2,0.3,20.5-0.2,30.7"/>
	<path class="st2" d="M402.7,475.8c0.3,10.2,0.3,20.5-0.2,30.7"/>
	<path class="st2" d="M593.7,476.5c0.3,10,0.2,20-0.2,30"/>
	<path class="st2" d="M684.2,475.8c-0.2,10.2-0.2,20.5,0.1,30.7"/>
	<path class="st2" d="M780.7,475.8c0.3,10.2,0.3,20.5-0.2,30.7"/>
	<path class="st2" d="M830.7,475.8c0.3,10.2,0.3,20.5-0.2,30.7"/>
	<path class="st2" d="M731.7,475.8c0.3,10.2,0.3,20.5-0.2,30.7"/>
	<path class="st2" d="M638.7,475.8c0.3,10.2,0.3,20.5-0.2,30.7"/>
	<path class="st2" d="M549.6,473.8c0.4,10.9,0.4,21.9-0.1,32.8"/>
	<path class="st2" d="M484.6,416.6c10-0.3,20-0.2,30,0.2"/>
	<path class="st2" d="M483.9,326.1c10.2,0.2,20.5,0.2,30.7-0.1"/>
	<path class="st2" d="M483.9,229.7c10.2-0.3,20.5-0.3,30.7,0.2"/>
	<path class="st2" d="M483.9,179.7c10.2-0.3,20.5-0.3,30.7,0.2"/>
	<path class="st2" d="M483.9,278.7c10.2-0.3,20.5-0.3,30.7,0.2"/>
	<path class="st2" d="M483.9,371.7c10.2-0.3,20.5-0.3,30.7,0.2"/>
	<path class="st2" d="M481.8,460.7c10.9-0.4,21.9-0.4,32.8,0.1"/>
	<path class="st2" d="M483.9,126.7c10.2-0.3,20.5-0.3,30.7,0.2"/>
	<path class="st2" d="M485.1,868.7c10-0.3,20-0.2,30,0.2"/>
	<path class="st2" d="M484.4,778.2c10.2,0.2,20.5,0.2,30.7-0.1"/>
	<path class="st2" d="M484.4,681.8c10.2-0.3,20.5-0.3,30.7,0.2"/>
	<path class="st2" d="M484.4,531.8c10.2-0.3,20.5-0.3,30.7,0.2"/>
	<path class="st2" d="M484.4,631.8c10.2-0.3,20.5-0.3,30.7,0.2"/>
	<path class="st2" d="M484.4,730.8c10.2-0.3,20.5-0.3,30.7,0.2"/>
	<path class="st2" d="M484.4,823.8c10.2-0.3,20.5-0.3,30.7,0.2"/>
	<path class="st2" d="M484.4,578.8c10.2-0.3,20.5-0.3,30.7,0.2"/>
	<text transform="matrix(1 0 0 1 467 464)" class="st3 st4">6</text>
	<text transform="matrix(1 0 0 1 523 420)" class="st3 st4">12</text>
	<text transform="matrix(1 0 0 1 460 374)" class="st3 st4">18</text>
	<text transform="matrix(1 0 0 1 632 470)" class="st3 st4">18</text>
	<text transform="matrix(1 0 0 1 522 635)" class="st3 st4">18</text>
	<text transform="matrix(1 0 0 1 343 521)" class="st3 st4">18</text>
	<text transform="matrix(1 0 0 1 292 466.2467)" class="st3 st4">24</text>
	<text transform="matrix(1 0 0 1 523 328.2467)" class="st3 st4">24</text>
	<text transform="matrix(1 0 0 1 679 522.2467)" class="st3 st4">24</text>
	<text transform="matrix(1 0 0 1 463 684.2467)" class="st3 st4">24</text>
	<text transform="matrix(1 0 0 1 525 733.2467)" class="st3 st4">30</text>
	<text transform="matrix(1 0 0 1 245 520.2467)" class="st3 st4">30</text>
	<text transform="matrix(1 0 0 1 464 282.2467)" class="st3 st4">30</text>
	<text transform="matrix(1 0 0 1 725 468.2467)" class="st3 st4">30</text>
	<text transform="matrix(1 0 0 1 774 521.2467)" class="st3 st4">36</text>
	<text transform="matrix(1 0 0 1 520 234.2467)" class="st3 st4">36</text>
	<text transform="matrix(1 0 0 1 198 467.2467)" class="st3 st4">36</text>
	<text transform="matrix(1 0 0 1 465 781.2467)" class="st3 st4">36</text>
	<text transform="matrix(1 0 0 1 525 827.2467)" class="st3 st4">42</text>
	<text transform="matrix(1 0 0 1 151 520.2467)" class="st3 st4">42</text>
	<text transform="matrix(1 0 0 1 462 181.2467)" class="st3 st4">42</text>
	<text transform="matrix(1 0 0 1 824 467.2467)" class="st3 st4">42</text>
	<text transform="matrix(1 0 0 1 589 525)" class="st3 st4">12</text>
	<text transform="matrix(1 0 0 1 464 582)" class="st3 st4">12</text>
	<text transform="matrix(1 0 0 1 395 468)" class="st3 st4">12</text>
	<text transform="matrix(1 0 0 1 546 466)" class="st3 st4">6</text>
	<text transform="matrix(1 0 0 1 522 534)" class="st3 st4">6</text>
	<text transform="matrix(1 0 0 1 447 522)" class="st3 st4">6</text>
	<text transform="matrix(1 0 0 1 14 504)" class="st5 st6">EA</text>
	<text transform="matrix(1 0 0 1 155 300)" class="st5 st7">ACOMODADOR</text>
	<text transform="matrix(1 0 0 1 586 300)" class="st5 st7">DIVERGENTE</text>
	<text transform="matrix(1 0 0 1 581 691)" class="st5 st7">ASIMILADOR</text>
	<text transform="matrix(1 0 0 1 161 697)" class="st5 st7">CONVERGENTE</text>
	<text transform="matrix(1 0 0 1 476 43)" class="st5 st6">EC</text>
	<text transform="matrix(1 0 0 1 940 508)" class="st5 st6">OR</text>
	<text transform="matrix(1 0 0 1 476 978)" class="st5 st6">CA</text>
</g>
</svg>
