<?xml version="1.0" encoding="utf-8"?>
<!-- Generator: Adobe Illustrator 24.0.1, SVG Export Plug-In . SVG Version: 6.00 Build 0)  -->
<svg version="1.1" id="Capa_1" xmlns="http://www.w3.org/2000/svg" xmlns:xlink="http://www.w3.org/1999/xlink" x="0px" y="0px"
	 viewBox="0 0 1000 1000" style="enable-background:new 0 0 1000 1000;" xml:space="preserve">
<style type="text/css">
	.st0{fill:#8CC63F;}
	.st1{fill:#FFFFFF;}
	.st2{fill:#FFFFFF;stroke:#000000;stroke-miterlimit:10;}
	.st3{fill:none;stroke:#000000;stroke-miterlimit:10;}
	.st4{font-family:'Arvo-Bold';}
	.st5{font-size:12px;}
	.st6{font-family:'Nunito-Bold';}
	.st7{font-size:26px;}
	.st8{font-size:33px;}
	.st9{font-size:31px;}
</style>
<g id="Capa_3">
	<rect class="st0" width="1000" height="1000"/>
</g>
<g id="Capa_2">
	<path class="st1" d="M924.7,932.8H68.3c-4.9,0-8.9-4-8.9-8.9V67.5c0-4.9,4-8.9,8.9-8.9h856.4c4.9,0,8.9,4,8.9,8.9v856.4
		C933.6,928.8,929.6,932.8,924.7,932.8z"/>
</g>
<g id="Capa_1_1_">
	<g>
		<line class="st2" x1="500.4" y1="119.8" x2="500.4" y2="874.7"/>
	</g>
	<line class="st2" x1="126.6" y1="496.3" x2="871.6" y2="496.3"/>
</g>
<g id="Capa_2_1_">
	<path class="st3" d="M203.1,492.2c0,2.5,0,5,0.1,7.5"/>
	<path class="st3" d="M299.9,492.2c0,2.7-0.1,5.5-0.2,8.2"/>
	<path class="st3" d="M449.9,492.9c0,2.7-0.1,5.5-0.2,8.2"/>
	<path class="st3" d="M349.9,491.5c0,3.2-0.1,6.4-0.2,9.6"/>
	<path class="st3" d="M250.9,492.2c0,2.7-0.1,5.5-0.2,8.2"/>
	<path class="st3" d="M157.9,492.9c0,2.3-0.1,4.5-0.1,6.8"/>
	<path class="st3" d="M402.9,492.9c0,2.3-0.1,4.5-0.1,6.8"/>
	<path class="st3" d="M593.9,491.8c0,2.8-0.1,5.6-0.1,8.4"/>
	<path class="st3" d="M684.1,492.2c0,2.7,0,5.5,0.1,8.2"/>
	<path class="st3" d="M780.9,492.2c0,2.7-0.1,5.5-0.2,8.2"/>
	<path class="st3" d="M830.9,492.2c0,2.5-0.1,5-0.1,7.5"/>
	<path class="st3" d="M871.8,492.2c0,3.2-0.1,6.4-0.2,9.6"/>
	<path class="st3" d="M731.9,492.2c0,2.7-0.1,5.5-0.2,8.2"/>
	<path class="st3" d="M638.9,491.5c0,3.2-0.1,6.4-0.2,9.6"/>
	<path class="st3" d="M549.9,492.3c0,2.7-0.1,5.5-0.1,8.2"/>
	<path class="st3" d="M497.9,416.4c1.9,0,3.7,0,5.6,0.1"/>
	<path class="st3" d="M496.9,326.2c2.5,0,5,0,7.5,0"/>
	<path class="st3" d="M497.9,229.5c2.1,0,4.2,0,6.3,0.1"/>
	<path class="st3" d="M498.2,179.5c2,0,4.1,0,6.1,0.1"/>
	<path class="st3" d="M496.9,278.5c2.7,0,5.5,0,8.2,0.1"/>
	<path class="st3" d="M496.9,371.5c2.5,0,5,0,7.5,0.1"/>
	<path class="st3" d="M496.8,460.4c2.3,0,4.6,0,6.8,0.1"/>
	<path class="st3" d="M498.2,126.5c2,0,4.1,0,6.1,0.1"/>
	<path class="st3" d="M497,868.5c2.3,0,4.7,0,7,0.1"/>
	<path class="st3" d="M498.7,778.3c1.6,0,3.2,0,4.8,0"/>
	<path class="st3" d="M498.7,681.6c2.3,0,4.6,0,6.8,0.1"/>
	<path class="st3" d="M496,531.6c3,0,5.9,0,8.9,0.1"/>
	<path class="st3" d="M496,631.6c3.2,0,6.4,0,9.6,0.1"/>
	<path class="st3" d="M498,730.6c2.5,0,5,0,7.5,0.1"/>
	<path class="st3" d="M497.4,823.6c1.8,0,3.6,0,5.5,0"/>
	<path class="st3" d="M495.3,578.6c3.4,0,6.8,0,10.2,0.1"/>
	<text transform="matrix(1 0 0 1 462.0005 463.3264)" class="st4 st5">0</text>
	<text transform="matrix(1 0 0 1 462.0003 420.8528)" class="st4 st5">-2</text>
	<text transform="matrix(1 0 0 1 462.0007 375.8528)" class="st4 st5">-4</text>
	<text transform="matrix(1 0 0 1 462.0004 328.2465)" class="st4 st5">-6</text>
	<text transform="matrix(1 0 0 1 462.0003 282.9308)" class="st4 st5">-8</text>
	<text transform="matrix(1 0 0 1 462.0005 232.7204)" class="st4 st5">-10</text>
	<text transform="matrix(1 0 0 1 462.0006 183.6152)" class="st4 st5">-12</text>
	<text transform="matrix(1 0 0 1 462.0005 129.9312)" class="st4 st5">-14</text>
	<text transform="matrix(1 0 0 1 631.4177 470)" class="st4 st5">0</text>
	<text transform="matrix(1 0 0 1 459.2947 638)" class="st4 st5">8</text>
	<text transform="matrix(1 0 0 1 347.89 468.8784)" class="st4 st5">12</text>
	<text transform="matrix(1 0 0 1 298.8701 468.8785)" class="st4 st5">14</text>
	<text transform="matrix(1 0 0 1 674.6625 470.0002)" class="st4 st5">-2</text>
	<text transform="matrix(1 0 0 1 459.2949 687.2467)" class="st4 st5">10</text>
	<text transform="matrix(1 0 0 1 459.2949 736.2467)" class="st4 st5">12</text>
	<text transform="matrix(1 0 0 1 250.2487 468.8785)" class="st4 st5">16</text>
	<text transform="matrix(1 0 0 1 721.728 470.0001)" class="st4 st5">-4</text>
	<text transform="matrix(1 0 0 1 769.1038 470.0001)" class="st4 st5">-6</text>
	<text transform="matrix(1 0 0 1 201.5277 468.8785)" class="st4 st5">18</text>
	<text transform="matrix(1 0 0 1 459.2949 784.2467)" class="st4 st5">14</text>
	<text transform="matrix(1 0 0 1 459.2949 830.2463)" class="st4 st5">16</text>
	<text transform="matrix(1 0 0 1 459.2949 870.9831)" class="st4 st5">18</text>
	<text transform="matrix(1 0 0 1 150 468.8784)" class="st4 st5">20</text>
	<text transform="matrix(1 0 0 1 816.0812 470.0001)" class="st4 st5">-8</text>
	<text transform="matrix(1 0 0 1 863.1578 470.0001)" class="st4 st5">-10</text>
	<text transform="matrix(1 0 0 1 588.8641 470.0002)" class="st4 st5">2</text>
	<text transform="matrix(1 0 0 1 459.2947 585)" class="st4 st5">6</text>
	<text transform="matrix(1 0 0 1 396.5993 468.8784)" class="st4 st5">10</text>
	<text transform="matrix(1 0 0 1 546 470)" class="st4 st5">4</text>
	<text transform="matrix(1 0 0 1 459.2947 538.6842)" class="st4 st5">4</text>
	<text transform="matrix(1 0 0 1 446 468.8785)" class="st4 st5">8</text>
	<text transform="matrix(1 0 0 1 100.842 523.684)" class="st6 st7">EA - OR</text>
	<text transform="matrix(1 0 0 1 197.9999 292.3158)" class="st6 st8">Adaptador</text>
	<text transform="matrix(1 0 0 1 614.2631 292.316)" class="st6 st8">Divergente</text>
	<text transform="matrix(1 0 0 1 614.2635 710.7372)" class="st6 st8">Asimilador</text>
	<text transform="matrix(1 0 0 1 172.9845 710.7368)" class="st6 st8">Convergente</text>
	<text transform="matrix(1 0 0 1 430.5264 111.2104)" class="st6 st9">CA - EC</text>
</g>
</svg>
