<svg xmlns="http://www.w3.org/2000/svg" xmlns:xlink="http://www.w3.org/1999/xlink" viewBox="0 0 1000 1000"><defs><style>.cls-1{fill:url(#Degradado_sin_nombre_41);}.cls-2{fill:url(#Degradado_sin_nombre_33);}.cls-3{fill:url(#Degradado_sin_nombre_59);}.cls-4{fill:#1a1a1a;}.cls-15,.cls-17,.cls-5{font-size:29px;}.cls-5{fill:#40db2a;font-family:MyriadPro-Regular, Myriad Pro;}.cls-6{fill:#c79a83;}.cls-7{fill:#e0b7a3;}.cls-8{fill:#42434d;}.cls-9{fill:#ffaa64;}.cls-10{fill:#a07765;}.cls-11{fill:#4d4e59;}.cls-12{fill:#ffbd7b;}.cls-13{fill:#faa157;}.cls-14{fill:#f2d1c2;}.cls-15,.cls-17{fill:#fff;}.cls-15,.cls-20{font-family:Nunito-SemiBold, Nunito;font-weight:600;}.cls-16{letter-spacing:-0.01em;}.cls-17{font-family:Nunito-Bold, Nunito;font-weight:700;}.cls-18{letter-spacing:0.04em;}.cls-19{letter-spacing:0em;}.cls-20{font-size:17px;}.cls-21{letter-spacing:0.01em;}.cls-22{letter-spacing:0em;}.cls-23{letter-spacing:0em;}.cls-24{letter-spacing:0em;}.cls-25{letter-spacing:0.04em;}.cls-26{letter-spacing:-0.01em;}.cls-27{letter-spacing:0em;}.cls-28{letter-spacing:-0.01em;}.cls-29{letter-spacing:-0.01em;}.cls-30{letter-spacing:0em;}.cls-31{letter-spacing:-0.01em;}.cls-32{letter-spacing:-0.01em;}.cls-33{letter-spacing:0em;}.cls-34{letter-spacing:0em;}.cls-35{letter-spacing:0.01em;}.cls-36{letter-spacing:-0.01em;}.cls-37{letter-spacing:0em;}.cls-38{letter-spacing:-0.01em;}.cls-39{letter-spacing:-0.02em;}.cls-40{letter-spacing:-0.01em;}.cls-41{letter-spacing:-0.01em;}.cls-42{letter-spacing:-0.02em;}.cls-43{letter-spacing:-0.01em;}.cls-44{letter-spacing:0em;}.cls-45{letter-spacing:-0.01em;}.cls-46{letter-spacing:0em;}.cls-47{letter-spacing:0.01em;}.cls-48{letter-spacing:0em;}.cls-49{fill:#d6f4fc;}.cls-50{fill:#e8f8fc;}.cls-51{fill:#bdeffc;}.cls-52{fill:#f1fafc;}.cls-53{fill:#ffdfba;}.cls-54{fill:#ffebd2;}.cls-55{fill:#ffd6a6;}.cls-56{fill:#fff3e4;}</style><radialGradient id="Degradado_sin_nombre_41" cx="500" cy="500" r="500" gradientUnits="userSpaceOnUse"><stop offset="0" stop-color="#8cc63f"/><stop offset="0.07" stop-color="#84c440"/><stop offset="0.48" stop-color="#5bbc45"/><stop offset="0.8" stop-color="#42b749"/><stop offset="1" stop-color="#39b54a"/></radialGradient><radialGradient id="Degradado_sin_nombre_33" cx="102.5" cy="118.5" r="22.5" gradientUnits="userSpaceOnUse"><stop offset="0" stop-color="#28ff00"/><stop offset="0.44" stop-color="#31d728"/><stop offset="0.79" stop-color="#37be41"/><stop offset="1" stop-color="#39b54a"/></radialGradient><linearGradient id="Degradado_sin_nombre_59" y1="500" x2="217" y2="500" gradientUnits="userSpaceOnUse"><stop offset="0" stop-color="#7cda24"/><stop offset="0.01" stop-color="#80db2b"/><stop offset="0.06" stop-color="#9be357"/><stop offset="0.13" stop-color="#b3e97f"/><stop offset="0.19" stop-color="#c7efa2"/><stop offset="0.26" stop-color="#d9f4bf"/><stop offset="0.34" stop-color="#e7f8d7"/><stop offset="0.44" stop-color="#f2fbe9"/><stop offset="0.54" stop-color="#f9fdf6"/><stop offset="0.69" stop-color="#fefffd"/><stop offset="1" stop-color="#fff"/></linearGradient></defs><title>result-laptop</title><g id="Capa_2" data-name="Capa 2"><rect class="cls-1" width="1000" height="1000"/><circle class="cls-2" cx="102.5" cy="118.5" r="22.5"/></g><g id="Capa_1" data-name="Capa 1"><rect class="cls-3" width="217" height="1000"/></g><g id="Capa_3" data-name="Capa 3"><circle class="cls-4" cx="48.5" cy="135.5" r="22.5"/><text class="cls-5" transform="translate(39.87 144.7)">1</text><circle class="cls-4" cx="48.5" cy="374.5" r="22.5"/><text class="cls-5" transform="translate(41.87 383.7)">2</text><circle class="cls-4" cx="48.5" cy="613.5" r="22.5"/><text class="cls-5" transform="translate(41.87 622.7)">3</text><circle class="cls-4" cx="48.5" cy="852.5" r="22.5"/><text class="cls-5" transform="translate(39.87 861.7)">4</text></g><g id="Capa_4" data-name="Capa 4"><path class="cls-6" d="M158,182.46v8.87a1.81,1.81,0,0,1-1.81,1.81h-66a1.81,1.81,0,0,1-1.81-1.81v-8.87a16.78,16.78,0,0,1,16.77-16.86,9.34,9.34,0,0,0,9.45-9.34v-1.59l0-.09A22.27,22.27,0,0,1,100.85,134v-.74a5.63,5.63,0,0,1-5.74-5.55V100.17A6.78,6.78,0,0,1,102,93.44a8.56,8.56,0,0,1,14.73-1.7,8.56,8.56,0,0,1,13.76,0h-.77a8.55,8.55,0,0,1,14.73,1.7,6.78,6.78,0,0,1,6.84,6.73V127.6a5.7,5.7,0,0,1-5.74,5.66V134a22.27,22.27,0,0,1-13.75,20.58l0,.09v1.59a9.34,9.34,0,0,0,9.45,9.34A16.78,16.78,0,0,1,158,182.46Z"/><path class="cls-7" d="M145.5,133.86a22.33,22.33,0,1,1-44.65,0V119.19a10.84,10.84,0,0,1,10.85-10.85h23a10.84,10.84,0,0,1,10.85,10.85Z"/><path class="cls-8" d="M116.68,91.74a8.53,8.53,0,0,1,13.76,0h-.77a8.53,8.53,0,0,1,14.73,1.71,6.8,6.8,0,0,1,6.84,6.77v27.59a5.72,5.72,0,0,1-5.74,5.69V119.39a10.85,10.85,0,0,0-10.85-10.85h-23a10.85,10.85,0,0,0-10.85,10.85V133.5a5.64,5.64,0,0,1-5.74-5.58v-27.7A6.8,6.8,0,0,1,102,93.45a8.53,8.53,0,0,1,14.73-1.71Z"/><path class="cls-9" d="M158,182.46v8.87a1.81,1.81,0,0,1-1.81,1.81h-66a1.81,1.81,0,0,1-1.81-1.81v-8.87A16.74,16.74,0,0,1,105,165.6a9.17,9.17,0,0,0,3.81-.77h0a15.55,15.55,0,0,0,28.47,0h0a9.31,9.31,0,0,0,3.84.77A16.82,16.82,0,0,1,158,182.46Z"/><path class="cls-10" d="M132,158.43a22.45,22.45,0,0,1-17.69,0,13.85,13.85,0,0,0,.26-3.71l0-.09a22.39,22.39,0,0,0,17.11,0l0,.09a13.88,13.88,0,0,0,.25,3.71Z"/><path class="cls-11" d="M146.89,95.75a8.47,8.47,0,0,0-6.92.07,7.94,7.94,0,0,1-6.59,0,8.45,8.45,0,0,0-6.86,0,8.41,8.41,0,0,1-6.79,0,8.45,8.45,0,0,0-9.86,2.44,8.09,8.09,0,0,1-3.56,2.47,6.73,6.73,0,0,0-4.38,6.31c0,7.47.08,7.3-.23,8a10,10,0,0,0-.85,4.33v8.48c0,3.66-5.7,3.91-5.74-.07V100.16a6.79,6.79,0,0,1,6.77-6.74,8.37,8.37,0,0,1,14.51-1.69,8.37,8.37,0,0,1,13.57,0h0a8.37,8.37,0,0,1,14.51,1.69,6.78,6.78,0,0,1,3.2.81.86.86,0,0,1-.78,1.52Z"/><path class="cls-12" d="M110.06,166.84a3.6,3.6,0,0,1-2.19,5.39c-5.7,1.46-13.17,5.28-13.17,16.05v4.86H90.16a1.81,1.81,0,0,1-1.81-1.81v-8.86a16.82,16.82,0,0,1,10-15.34h0c5.4-2.41,6.93-.7,10.7-2.26a16.06,16.06,0,0,0,1,2Z"/><path class="cls-13" d="M136.29,166.84a3.6,3.6,0,0,0,2.19,5.39c5.7,1.46,13.17,5.28,13.17,16.05v4.86h4.54a1.81,1.81,0,0,0,1.81-1.81v-8.86a16.82,16.82,0,0,0-9.95-15.34h0c-5.41-2.41-6.94-.7-10.71-2.26a16.06,16.06,0,0,1-1.05,2Z"/><path class="cls-14" d="M118.1,148.35c3.67,2.3.78,7.93-3.23,6.31a22.29,22.29,0,0,1-14-20.71V119.32a10.81,10.81,0,0,1,1.89-6.12,2.67,2.67,0,0,1,4.87,1.62v14.62A22.14,22.14,0,0,0,118.1,148.35Z"/><text class="cls-15" transform="translate(264.35 150.3)"><tspan class="cls-16">A</tspan><tspan x="21.08" y="0">similador</tspan></text><text class="cls-17" transform="translate(460.35 55.3)">Opo<tspan class="cls-18" x="56.69" y="0">r</tspan><tspan x="69.11" y="0">tunidades de mejo</tspan><tspan class="cls-19" x="314.21" y="0">r</tspan><tspan x="325.26" y="0">a</tspan></text><line x1="256" y1="246" x2="958" y2="248"/><rect x="606" y="-104" width="2" height="702" transform="translate(358.27 853.29) rotate(-89.84)"/><text class="cls-20" transform="translate(460.62 113.56)">Neces<tspan class="cls-21" x="47.02" y="0">i</tspan><tspan x="51.37" y="0">tan tener in</tspan><tspan class="cls-22" x="139.14" y="0">f</tspan><tspan x="144.87" y="0">ormación pa</tspan><tspan class="cls-23" x="239.76" y="0">r</tspan><tspan class="cls-24" x="245.93" y="0">a tomar decisione</tspan><tspan class="cls-22" x="381.61" y="0">s</tspan><tspan x="389.72" y="0">.</tspan><tspan x="0" y="24">No muy pa</tspan><tspan class="cls-25" x="83.5" y="24">r</tspan><tspan x="90.44" y="24">ticipati</tspan><tspan class="cls-26" x="142.13" y="24">v</tspan><tspan x="150.86" y="24">o</tspan><tspan class="cls-22" x="160.44" y="24">s</tspan><tspan class="cls-27" x="168.55" y="24">.</tspan><tspan class="cls-26" x="0" y="48">P</tspan><tspan x="10.96" y="48">ueden tener p</tspan><tspan class="cls-28" x="117.49" y="48">r</tspan><tspan x="123.54" y="48">oblemas con los pla</tspan><tspan class="cls-29" x="274.43" y="48">z</tspan><tspan x="282.82" y="48">o</tspan><tspan class="cls-22" x="292.41" y="48">s</tspan><tspan x="300.52" y="48">.</tspan><tspan class="cls-29" x="0" y="72">P</tspan><tspan x="10.88" y="72">a</tspan><tspan class="cls-23" x="19.97" y="72">r</tspan><tspan x="26.15" y="72">álisis por análisi</tspan><tspan class="cls-22" x="147.32" y="72">s</tspan><tspan class="cls-27" x="155.43" y="72">.</tspan><tspan x="0" y="96">Neces</tspan><tspan class="cls-21" x="47.02" y="96">i</tspan><tspan x="51.37" y="96">tan concent</tspan><tspan class="cls-30" x="141.33" y="96">r</tspan><tspan x="147.51" y="96">a</tspan><tspan class="cls-22" x="156.6" y="96">r</tspan><tspan x="162.74" y="96">se y les cue</tspan><tspan class="cls-22" x="250.41" y="96">s</tspan><tspan x="258.51" y="96">ta en entornos ruidoso</tspan><tspan class="cls-31" x="431.45" y="96">s</tspan><tspan x="439.56" y="96">.</tspan></text><text class="cls-15" transform="translate(264.35 375.3)">Di<tspan class="cls-16" x="28.65" y="0">v</tspan><tspan x="43.53" y="0">e</tspan><tspan class="cls-32" x="58.87" y="0">r</tspan><tspan x="69.19" y="0">gente</tspan></text><line x1="256" y1="471" x2="958" y2="473"/><rect x="606" y="121" width="2" height="702" transform="translate(133.27 1077.65) rotate(-89.84)"/><text class="cls-20" transform="translate(460.62 319.56)">A <tspan class="cls-26" x="16.97" y="0">v</tspan><tspan class="cls-33" x="25.69" y="0">eces hay que p</tspan><tspan class="cls-28" x="140.03" y="0">r</tspan><tspan x="146.08" y="0">eguntarles lo que piensan.</tspan><tspan x="0" y="24">No de</tspan><tspan class="cls-22" x="45.75" y="24">s</tspan><tspan x="53.86" y="24">tacan por su p</tspan><tspan class="cls-28" x="163.28" y="24">r</tspan><tspan x="169.33" y="24">oa</tspan><tspan class="cls-34" x="188.02" y="24">c</tspan><tspan x="196.26" y="24">ti</tspan><tspan class="cls-35" x="206.38" y="24">v</tspan><tspan class="cls-27" x="215.47" y="24">idad ni por tener una g</tspan><tspan class="cls-30" x="389.65" y="24">r</tspan><tspan x="395.82" y="24">an iniciati</tspan><tspan class="cls-36" x="468.75" y="24">v</tspan><tspan x="477.45" y="24">a.</tspan><tspan class="cls-37" x="0" y="48">L</tspan><tspan x="9.27" y="48">es cue</tspan><tspan class="cls-31" x="57.82" y="48">s</tspan><tspan x="65.92" y="48">ta cer</tspan><tspan class="cls-23" x="108.93" y="48">r</tspan><tspan x="115.11" y="48">ar temas y tienen cosas pendiente</tspan><tspan class="cls-31" x="376.37" y="48">s</tspan><tspan x="384.48" y="48">.</tspan><tspan x="0" y="72">En ocasiones no e</tspan><tspan class="cls-31" x="137.34" y="72">s</tspan><tspan x="145.45" y="72">tán de acue</tspan><tspan class="cls-28" x="234.32" y="72">r</tspan><tspan x="240.38" y="72">do con las decisiones tomadas y </tspan><tspan x="0" y="96">no las comunican o lo hacen ta</tspan><tspan class="cls-28" x="235.11" y="96">r</tspan><tspan x="241.16" y="96">de.</tspan></text><text class="cls-15" transform="translate(264.35 605.3)"><tspan class="cls-38">C</tspan><tspan x="19.34" y="0">on</tspan><tspan class="cls-16" x="52.4" y="0">v</tspan><tspan x="67.28" y="0">e</tspan><tspan class="cls-32" x="82.62" y="0">r</tspan><tspan x="92.94" y="0">gente</tspan></text><line x1="256" y1="712" x2="958" y2="714"/><rect x="606" y="362" width="2" height="702" transform="translate(-107.73 1317.97) rotate(-89.84)"/><text class="cls-20" transform="translate(460.62 543.56)"><tspan class="cls-39">P</tspan><tspan x="10.79" y="0">oco fl</tspan><tspan class="cls-40" x="52.6" y="0">e</tspan><tspan class="cls-24" x="61.42" y="0">xible</tspan><tspan class="cls-22" x="97.61" y="0">s</tspan><tspan x="105.72" y="0">.</tspan><tspan class="cls-26" x="0" y="24">P</tspan><tspan x="10.96" y="24">ueden llegar a ser incapaces de hacer </tspan><tspan class="cls-36" x="302.13" y="24">v</tspan><tspan x="310.84" y="24">arias cosas a la </tspan><tspan class="cls-41" x="431.09" y="24">ve</tspan><tspan x="448.69" y="24">z.</tspan><tspan class="cls-37" x="0" y="48">L</tspan><tspan x="9.27" y="48">es cue</tspan><tspan class="cls-31" x="57.82" y="48">s</tspan><tspan x="65.92" y="48">ta mucho imp</tspan><tspan class="cls-28" x="170.73" y="48">r</tspan><tspan class="cls-41" x="176.78" y="48">o</tspan><tspan class="cls-35" x="186.25" y="48">v</tspan><tspan class="cls-27" x="195.34" y="48">isa</tspan><tspan class="cls-42" x="216.75" y="48">r</tspan><tspan x="222.59" y="48">.</tspan><tspan x="0" y="72">A </tspan><tspan class="cls-26" x="16.97" y="72">v</tspan><tspan class="cls-33" x="25.69" y="72">eces no les inte</tspan><tspan class="cls-43" x="143.12" y="72">r</tspan><tspan class="cls-27" x="149.17" y="72">esa el t</tspan><tspan class="cls-30" x="203.54" y="72">r</tspan><tspan x="209.71" y="72">abajo con pe</tspan><tspan class="cls-22" x="307.25" y="72">r</tspan><tspan x="313.39" y="72">sona</tspan><tspan class="cls-31" x="350.06" y="72">s</tspan><tspan x="358.17" y="72">, p</tspan><tspan class="cls-28" x="376.75" y="72">r</tspan><tspan class="cls-44" x="382.8" y="72">e</tspan><tspan x="391.76" y="72">fie</tspan><tspan class="cls-43" x="410.66" y="72">r</tspan><tspan class="cls-27" x="416.71" y="72">en el técnic</tspan><tspan class="cls-45" x="502.9" y="72">o</tspan><tspan x="512.24" y="72">.</tspan><tspan x="0" y="96">Son más indi</tspan><tspan class="cls-35" x="99.02" y="96">v</tspan><tspan x="108.12" y="96">iduali</tspan><tspan class="cls-31" x="149.27" y="96">s</tspan><tspan x="157.38" y="96">ta</tspan><tspan class="cls-22" x="172.48" y="96">s</tspan><tspan x="180.59" y="96">. </tspan><tspan class="cls-44" x="189.12" y="96">L</tspan><tspan x="198.39" y="96">es cue</tspan><tspan class="cls-22" x="246.94" y="96">s</tspan><tspan x="255.05" y="96">ta ge</tspan><tspan class="cls-31" x="293.74" y="96">s</tspan><tspan x="301.85" y="96">tionar el tiempo y el confli</tspan><tspan class="cls-34" x="499.18" y="96">c</tspan><tspan x="507.42" y="96">t</tspan><tspan class="cls-45" x="513.42" y="96">o</tspan><tspan x="522.76" y="96">.</tspan></text><text class="cls-15" transform="translate(264.35 851.3)">Ada<tspan class="cls-19" x="53.94" y="0">p</tspan><tspan x="71.02" y="0">tador</tspan></text><line x1="256" y1="963" x2="958" y2="965"/><rect x="606" y="613" width="2" height="702" transform="translate(-358.73 1568.25) rotate(-89.84)"/><text class="cls-20" transform="translate(460.62 800.56)"><tspan class="cls-37">L</tspan><tspan x="9.27" y="0">es cue</tspan><tspan class="cls-31" x="57.82" y="0">s</tspan><tspan x="65.92" y="0">ta descone</tspan><tspan class="cls-46" x="149.33" y="0">c</tspan><tspan x="157.57" y="0">tar del t</tspan><tspan class="cls-23" x="217.02" y="0">r</tspan><tspan x="223.19" y="0">abaj</tspan><tspan class="cls-45" x="255.54" y="0">o</tspan><tspan x="264.87" y="0">.</tspan><tspan class="cls-28" x="0" y="24">Pr</tspan><tspan x="16.97" y="24">oblemas con la ge</tspan><tspan class="cls-22" x="155.02" y="24">s</tspan><tspan x="163.13" y="24">tión del tiemp</tspan><tspan class="cls-45" x="268.56" y="24">o</tspan><tspan x="277.89" y="24">.</tspan><tspan x="0" y="48">No hacen esguimiento</tspan><tspan class="cls-22" x="171.31" y="48">s</tspan><tspan x="179.42" y="48">.</tspan><tspan x="0" y="72">No sopo</tspan><tspan class="cls-22" x="64.12" y="72">e</tspan><tspan x="73.03" y="72">tan las rutina</tspan><tspan class="cls-22" x="173.19" y="72">s</tspan><tspan class="cls-27" x="181.3" y="72">.</tspan><tspan x="0" y="96">En s</tspan><tspan class="cls-47" x="32.42" y="96">i</tspan><tspan x="36.77" y="96">tuaciones con</tspan><tspan class="cls-48" x="142.51" y="96">f</tspan><tspan x="148.24" y="96">o</tspan><tspan class="cls-25" x="157.83" y="96">r</tspan><tspan x="164.76" y="96">tables pueden sentir que pie</tspan><tspan class="cls-28" x="381.88" y="96">r</tspan><tspan x="387.93" y="96">den el tiemp</tspan><tspan class="cls-45" x="482.66" y="96">o</tspan><tspan class="cls-27" x="491.99" y="96">.</tspan></text><path class="cls-6" d="M166,369.36a5.65,5.65,0,0,0-.31-6.75l-3.54-4.36a5.64,5.64,0,0,1-1-5.21l2.09-6.94a5.69,5.69,0,0,0-2.31-6.37l-4.16-2.8a5.69,5.69,0,0,1-2.34-6.24,5.77,5.77,0,0,0-5.41-7.25l-1.84-.08a8.58,8.58,0,0,1-8.1-6.81l-.13-.65a5.83,5.83,0,0,0-8.58-3.82,5.89,5.89,0,0,1-7-.91l-1.55-1.52a5.91,5.91,0,0,0-8.21,0L110.25,313a5.83,5.83,0,0,1-3.14,1.59l-7,1.15a8.1,8.1,0,0,0-6.6,10.11l1.37,4.92a5.62,5.62,0,0,1-2.31,6.18l-4.23,2.85a5.63,5.63,0,0,0-2.28,6.29l2.12,7a5.59,5.59,0,0,1-1,5.14l-3.59,4.43a5.59,5.59,0,0,0-.31,6.67l3.47,5.13a5.59,5.59,0,0,1-.29,6.65l-.51.64a6.7,6.7,0,0,0,.54,9l4.92,4.92a17.18,17.18,0,0,0-2.35,8.69v9.08a1.85,1.85,0,0,0,1.85,1.85h67.53a1.85,1.85,0,0,0,1.85-1.85v-9.08a16.79,16.79,0,0,0-2.35-8.69s-.23.24,4.92-4.92a6.69,6.69,0,0,0,.54-9l-.48-.6a5.66,5.66,0,0,1-.29-6.73Zm-9.28,24.55h0l.2.28-.2-.28Z"/><path class="cls-7" d="M147.56,345.28v9.46a22.9,22.9,0,0,1-45.69,2.19,1.85,1.85,0,0,1,.76-1.65c5.75-4.24,7.6-8.21,8.16-11.21.52-2.79-.08-4.74,1.16-7.63a13.62,13.62,0,0,1,12.61-7.81h6.35A16.64,16.64,0,0,1,147.56,345.28Z"/><path class="cls-8" d="M147.56,354.74v-9.46a16.64,16.64,0,0,0-16.65-16.65h-6.35A13.62,13.62,0,0,0,112,336.44c-1.24,2.89-.64,4.85-1.16,7.63-.56,3-2.41,7-8.16,11.21a1.86,1.86,0,0,0-.76,1.65,22.92,22.92,0,0,0,14,19l0,.09v1.58a9.57,9.57,0,0,1-9.58,9.56,17.22,17.22,0,0,0-14.9,8.55l-4.92-4.92a6.7,6.7,0,0,1-.54-9l.51-.64a5.59,5.59,0,0,0,.29-6.65l-3.47-5.13a5.59,5.59,0,0,1,.31-6.67l3.59-4.43a5.59,5.59,0,0,0,1-5.14l-2.12-7a5.63,5.63,0,0,1,2.28-6.29l4.23-2.85a5.62,5.62,0,0,0,2.31-6.18l-1.37-4.92a8.1,8.1,0,0,1,6.6-10.11l7-1.15a5.83,5.83,0,0,0,3.14-1.59l3.37-3.31a5.91,5.91,0,0,1,8.21,0l1.55,1.52a5.89,5.89,0,0,0,7,.91A5.83,5.83,0,0,1,139,315.9l.13.65a8.58,8.58,0,0,0,8.1,6.81l1.84.08a5.77,5.77,0,0,1,5.41,7.25,5.69,5.69,0,0,0,2.34,6.24l4.16,2.8a5.69,5.69,0,0,1,2.31,6.37L161.15,353a5.64,5.64,0,0,0,1,5.21l3.54,4.36a5.65,5.65,0,0,1,.31,6.75l-3.41,5.05a5.66,5.66,0,0,0,.29,6.73l.48.6a6.69,6.69,0,0,1-.54,9c-5,5-4.89,4.9-4.92,4.92A17.22,17.22,0,0,0,143,387.13a9.61,9.61,0,0,1-9.54-9.66V376l0-.09a22.91,22.91,0,0,0,14.14-21.16Z"/><path class="cls-49" d="M160.28,404.37v9.08a1.85,1.85,0,0,1-1.85,1.85H90.9a1.85,1.85,0,0,1-1.85-1.85v-9.08a17.24,17.24,0,0,1,17.25-17.24A10.51,10.51,0,0,0,108,387l0,.11a43.88,43.88,0,0,0,48.74,6.82,17.17,17.17,0,0,1,3.53,10.46Z"/><path class="cls-6" d="M154,391.06c-.25-.2-.5-.4-.76-.59C153.5,390.66,153.75,390.86,154,391.06Z"/><path class="cls-10" d="M133.72,379.78a22.94,22.94,0,0,1-18.1,0,14.44,14.44,0,0,0,.26-3.79l0-.09a22.94,22.94,0,0,0,17.51,0l0,.09a14,14,0,0,0,.27,3.79Z"/><path class="cls-6" d="M153.24,390.47c.26.19.51.39.76.59C153.75,390.86,153.5,390.66,153.24,390.47Z"/><path class="cls-6" d="M157,394.19l-.2-.28h0l.2.28Z"/><path class="cls-11" d="M121.86,315c-2.54,2.45-3.33,3.76-5.73,4.16-2.9.48-16.46.92-13.58,11.27l1.37,4.92a5.6,5.6,0,0,1-2.31,6.17l-4.23,2.86a5.62,5.62,0,0,0-2.28,6.29l2.12,7a5.61,5.61,0,0,1-1,5.15l-3.59,4.43a5.57,5.57,0,0,0-.31,6.66l3.47,5.14a5.59,5.59,0,0,1-.29,6.65l-.51.63a6.7,6.7,0,0,0-1.43,5.16,2.36,2.36,0,0,1-.54,1.87,2.46,2.46,0,0,1-3.67.22l-2.84-2.85a6.7,6.7,0,0,1-.54-9l.51-.64a5.59,5.59,0,0,0,.29-6.65l-3.47-5.13a5.59,5.59,0,0,1,.31-6.67l3.59-4.43a5.59,5.59,0,0,0,1-5.14l-2.12-7a5.63,5.63,0,0,1,2.28-6.29l4.23-2.85a5.62,5.62,0,0,0,2.31-6.18l-1.37-4.92a8.1,8.1,0,0,1,6.6-10.11l7-1.16a5.75,5.75,0,0,0,3.14-1.58l3.37-3.31a5.91,5.91,0,0,1,8.21,0,3.72,3.72,0,0,1,0,5.36Z"/><path class="cls-14" d="M119.12,369.79c3.81,2,1.1,7.83-2.93,6.23a23,23,0,0,1-14.32-19.08,1.87,1.87,0,0,1,.76-1.66,26.83,26.83,0,0,0,4.69-4.29,1.92,1.92,0,0,0-.13.86,22.64,22.64,0,0,0,11.93,17.94Z"/><path class="cls-6" d="M157,394.19l-.2-.28h0l.2.28Z"/><path class="cls-50" d="M110.5,389.16a1.85,1.85,0,0,1-.72,3.26C100.2,394.75,96,401.48,96,409v6.3H90.9a1.85,1.85,0,0,1-1.85-1.85v-9.08a17.24,17.24,0,0,1,17.25-17.24A10.51,10.51,0,0,0,108,387l0,.11c.68.6,1.51,1.31,2.49,2.07Z"/><path class="cls-51" d="M160.28,404.37v9.08a1.85,1.85,0,0,1-1.85,1.85h-5.09V409a16.09,16.09,0,0,0-5-12.06,45.94,45.94,0,0,0,8.37-3A17.17,17.17,0,0,1,160.28,404.37Z"/><path class="cls-10" d="M156.75,393.91a45.19,45.19,0,0,1-8.37,3,17.9,17.9,0,0,0-5.91-3.61c-2.59-1-2.62-2.83-2.16-4.28a2.8,2.8,0,0,1,2.7-1.92,17.26,17.26,0,0,1,13.74,6.78Z"/><path class="cls-6" d="M154,644.65v8.4a1.7,1.7,0,0,1-1.7,1.71H90.11a1.71,1.71,0,0,1-1.71-1.71v-8.4a16,16,0,0,1,16-15.84,8.82,8.82,0,0,0,7.11-3.7l.14,0-.1-.1,0,0a9.92,9.92,0,0,0,1.62-6.54l0-.08a21.08,21.08,0,0,1-13-19.48v-.67a5.26,5.26,0,0,1-5.33-5.23V582.45a26.52,26.52,0,0,1,53,0v10.33a5.54,5.54,0,0,1-5.53,5.54V599a21.07,21.07,0,0,1-13,19.48l0,.08a9.84,9.84,0,0,0,1.62,6.54l0,0-.09.1.13,0a8.83,8.83,0,0,0,7.11,3.7,16,16,0,0,1,16,15.84Z"/><path class="cls-8" d="M147.82,582.45v10.33a5.54,5.54,0,0,1-5.53,5.54V585.17a10.23,10.23,0,0,0-10.23-10.23H110.34a10.23,10.23,0,0,0-10.22,10.23v13.15a5.26,5.26,0,0,1-5.33-5.23V582.45a26.52,26.52,0,0,1,53,0Z"/><path class="cls-7" d="M142.29,599a21.09,21.09,0,0,1-42.17,0V585.17a10.23,10.23,0,0,1,10.22-10.23h21.72a10.23,10.23,0,0,1,10.23,10.23Z"/><path class="cls-49" d="M138,628.81a8.84,8.84,0,0,1-7.15-3.76l-8.41,9.35a1.7,1.7,0,0,1-2.53,0l-8.42-9.35a8.81,8.81,0,0,1-7.15,3.76,16,16,0,0,0-16,15.84v8.4a1.71,1.71,0,0,0,1.71,1.71H152.3a1.7,1.7,0,0,0,1.7-1.71v-8.4a16,16,0,0,0-16-15.84Z"/><path class="cls-6" d="M111.62,625.15l-.14,0v0l0,0Z"/><path class="cls-6" d="M130.92,625.11l-.13,0,.09-.1,0,0v0Z"/><path class="cls-6" d="M111.52,625.05l0,0v0l.14,0Zm19.4,0,0,0-.09.1.13,0v0Z"/><path class="cls-50" d="M134.64,628.1c0,.06-2.13,9.62-2.12,9.56a1.56,1.56,0,0,1-2.71.69c-5.59-6.44-4.83-5.6-5.4-6.11l6.47-7.19a8.84,8.84,0,0,0,3.76,3.05Z"/><path class="cls-50" d="M111.52,625.05l6.32,7-5.24,6.21a1.57,1.57,0,0,1-2.73-.68c0-.06-2.08-9.44-2.1-9.5a8.75,8.75,0,0,0,3.75-3.05Z"/><path class="cls-9" d="M144.33,630.13v24.63H98.07V630.13c5-2.11,6.42-.62,9.71-2l2,9.29a1.7,1.7,0,0,0,3,.75l5.17-5.95,2,2.21a1.7,1.7,0,0,0,2.53,0l2-2.21,5.17,5.95a1.7,1.7,0,0,0,3-.75l2-9.29c3.3,1.41,4.75-.08,9.7,2Z"/><path class="cls-50" d="M108.88,633.09A15.88,15.88,0,0,0,93.73,649v5.81H90.11a1.72,1.72,0,0,1-1.71-1.71v-8.39a16,16,0,0,1,16-15.85,8.71,8.71,0,0,0,3.39-.71C107.79,628.16,108.86,633,108.88,633.09Z"/><path class="cls-52" d="M111.66,634c.31,1.44.65,3,.94,4.29a1.57,1.57,0,0,1-2.73-.68c-.82-3.72-2.08-9.46-2.1-9.5a8.75,8.75,0,0,0,3.75-3.05l1.82,2a8.23,8.23,0,0,0-1.68,6.92Z"/><path class="cls-12" d="M108.88,633.09A15.84,15.84,0,0,0,98.07,638v-7.91c4.74-2,6.55-.67,9.7-2,0,0,1.11,5,1.11,5Z"/><path class="cls-51" d="M133.53,633.09A15.88,15.88,0,0,1,148.68,649v5.81h3.62a1.71,1.71,0,0,0,1.7-1.71v-8.39a16,16,0,0,0-16-15.85,8.68,8.68,0,0,1-3.39-.71C134.61,628.16,133.54,633,133.53,633.09Z"/><path class="cls-13" d="M133.53,633.09a15.81,15.81,0,0,1,10.8,4.95v-7.91c-4.74-2-6.55-.67-9.69-2,0,0-1.11,5-1.11,5Z"/><path class="cls-8" d="M128.59,604.54a1.64,1.64,0,0,1,.55,2.83,6.16,6.16,0,0,1-7.11.5,1.64,1.64,0,0,0-1.66,0,6.16,6.16,0,0,1-7.11-.5,1.64,1.64,0,0,1,.55-2.83c2-.71,2.41-2.18,4-2.59a3.93,3.93,0,0,1,2.71.36,1.72,1.72,0,0,0,1.37,0,3.93,3.93,0,0,1,2.71-.36C126.19,602.36,126.55,603.83,128.59,604.54Z"/><path class="cls-10" d="M129.54,622.05a21.12,21.12,0,0,1-16.67,0,13.15,13.15,0,0,0,.24-3.5l0-.08a21.09,21.09,0,0,0,16.12,0l0,.08a13.15,13.15,0,0,0,.24,3.5Z"/><path class="cls-14" d="M112.53,609.48c3.33,3.39-1.39,8.59-5,5.53a20.66,20.66,0,0,1-7.38-16V585.16a10.33,10.33,0,0,1,1.8-5.81,2.52,2.52,0,0,1,4.59,1.49v13.89a20.84,20.84,0,0,0,6,14.75Z"/><path class="cls-11" d="M128.35,562.33a26.52,26.52,0,0,0-24.29,14.48,2.41,2.41,0,0,1-.57.77,10.2,10.2,0,0,0-3.37,7.59v8c0,3.41-5.15,3.61-5.32.2,0-.21,0-10.85,0-10.65,0-17.81,17.13-30.93,34.38-25.59A2.66,2.66,0,0,1,128.35,562.33Z"/><path class="cls-53" d="M156.9,877.22v8.67a1.78,1.78,0,0,1-1.77,1.77H90.66a1.77,1.77,0,0,1-1.77-1.77v-8.67a16.47,16.47,0,0,1,9.66-15c-2.32-1.85-5.87-4.33-8.45-9.68a23.36,23.36,0,0,1,1.6-23.09,22.7,22.7,0,0,0,3.81-12.6v-9.56a22.08,22.08,0,0,1,22.08-22.08h10.6a22.07,22.07,0,0,1,22.08,22.08c0,10.13-.25,12.11,1,16.14,1.72,5.7,4,6.4,5.75,12.2a23.36,23.36,0,0,1-7.81,25l-2,1.55a16.47,16.47,0,0,1,9.67,15Z"/><path class="cls-9" d="M156.9,877.22v8.67a1.78,1.78,0,0,1-1.77,1.77H90.66a1.77,1.77,0,0,1-1.77-1.77v-8.67a16.46,16.46,0,0,1,16.46-16.46,9.25,9.25,0,0,0,3.8-.82l0,.12,12.61,9.76a1.77,1.77,0,0,0,2.16,0l12.61-9.76.06-.12a9.2,9.2,0,0,0,3.79.82A16.47,16.47,0,0,1,156.9,877.22Z"/><path class="cls-54" d="M143.08,817.5a1.76,1.76,0,0,1,1.67,1.76v10.58a21.86,21.86,0,1,1-43.72,0V819.42a1.76,1.76,0,0,1,1.92-1.76A45.71,45.71,0,0,0,132.74,810a1.77,1.77,0,0,1,2.69,1,8.25,8.25,0,0,0,7.65,6.48Z"/><path class="cls-8" d="M149.19,860.67l-2,1.55a16.39,16.39,0,0,0-6.8-1.46,9.14,9.14,0,0,1-9.15-9.13v-1.51l0-.08a21.85,21.85,0,0,0,13.5-20.2V819.26a1.76,1.76,0,0,0-1.67-1.76,8.22,8.22,0,0,1-7.65-6.48,1.77,1.77,0,0,0-2.69-1A45.69,45.69,0,0,1,103,817.66a1.76,1.76,0,0,0-1.92,1.76v10.42A21.86,21.86,0,0,0,114.54,850l0,.08v1.51a9.14,9.14,0,0,1-9.15,9.13,16.46,16.46,0,0,0-6.8,1.46l-2-1.55a23.36,23.36,0,0,1-4.9-31.22,22.7,22.7,0,0,0,3.81-12.6v-9.56a22.08,22.08,0,0,1,22.08-22.08h10.6a22.07,22.07,0,0,1,22.08,22.08v9.56a22.78,22.78,0,0,0,3.81,12.6,23.36,23.36,0,0,1-4.89,31.22Z"/><path class="cls-55" d="M131.53,853.75a22,22,0,0,1-17.28,0,13.71,13.71,0,0,0,.25-3.63l0-.08a21.89,21.89,0,0,0,16.71,0l0,.08A13.71,13.71,0,0,0,131.53,853.75Z"/><path class="cls-11" d="M138.17,787.58a2.31,2.31,0,0,1-1.25,4.35,20.8,20.8,0,0,0-2.1-.1h-10.6a22.08,22.08,0,0,0-22.08,22.08v2.69c0,1.58-1.11,1.53-1.11,2.82,0,11.66,0,10.92-.12,11.42-1.73,5.1-3.81,5.84-5.5,11.41a23.31,23.31,0,0,0-.87,9.2,2.31,2.31,0,0,1-4.44,1.09,23.38,23.38,0,0,1,1.6-23.09,22.7,22.7,0,0,0,3.81-12.6v-9.56a22.08,22.08,0,0,1,22.08-22.08h10.6a22,22,0,0,1,10,2.37Z"/><path class="cls-56" d="M118.7,844.48a3.37,3.37,0,0,1-3,6A21.72,21.72,0,0,1,101,829.84V819.42a1.76,1.76,0,0,1,1.92-1.76c.85.07,1.78.13,2.78.16a3.37,3.37,0,0,1,3.25,3.37v5.11a21.78,21.78,0,0,0,9.72,18.18Z"/><path class="cls-12" d="M112.84,862.88a1.4,1.4,0,0,1-.83,2.51,16.47,16.47,0,0,0-16.5,16.47v5.8H90.66a1.77,1.77,0,0,1-1.77-1.77v-8.67a16.46,16.46,0,0,1,16.46-16.46,9.25,9.25,0,0,0,3.8-.82l0,.12Z"/><path class="cls-13" d="M132.94,862.88a1.4,1.4,0,0,0,.83,2.51,16.46,16.46,0,0,1,16.5,16.47v5.8h4.86a1.78,1.78,0,0,0,1.77-1.77v-8.67a16.46,16.46,0,0,0-16.47-16.46,9.2,9.2,0,0,1-3.79-.82l-.06.12Z"/></g></svg>